<svg width="658" height="298" viewBox="0 0 658 298" fill="none" xmlns="http://www.w3.org/2000/svg">
<path fill-rule="evenodd" clip-rule="evenodd" d="M494.377 165.837H470.453V134.569H493.592C501.445 134.569 507.394 135.826 511.274 138.302C515.053 140.716 516.891 144.532 516.891 149.968C516.891 160.646 509.526 165.837 494.377 165.837ZM470.453 88.3178H488.26C496.531 88.3178 502.735 89.2424 506.701 91.068C510.444 92.7925 512.264 96.2407 512.264 101.609C512.264 104.104 511.656 106.387 510.435 108.434C508.882 111.289 506.704 113.167 503.782 114.177C500.746 115.226 496.341 115.759 490.692 115.759H470.453V88.3178ZM521.723 123.534C532.033 118.007 537.258 109.616 537.258 98.5612C537.258 95.1138 536.68 91.7958 535.545 88.6989C534.41 85.5997 532.739 82.7319 530.574 80.1683C528.419 77.6163 525.899 75.4762 523.091 73.8061C519.798 71.8185 516.029 70.456 511.887 69.7574C507.823 69.0727 502.962 68.7276 497.433 68.7276H460.187C454.946 68.7276 451.061 69.9514 448.638 72.3645C446.215 74.779 444.985 78.7042 444.985 84.0305V155.322V170.125V185.429H460.187H466.838H495.319C501.405 185.429 506.808 185.122 511.376 184.519C515.995 183.914 520.151 182.849 523.748 181.351C529.515 178.828 534.163 174.867 537.557 169.576C540.949 164.294 542.67 158.276 542.67 151.688C542.67 138.152 535.626 128.694 521.723 123.534Z" fill="#0056C1"/>
<path fill-rule="evenodd" clip-rule="evenodd" d="M370.102 95.8572L370.244 96.243L370.384 95.8572L385.802 138.681H370.244H354.684L370.102 95.8572ZM347.83 158.193H370.244H392.654L402.691 185.237H429.058L421.733 166.788C421.371 165.843 420.978 164.836 420.523 163.712L388.233 81.9806C387.04 78.9394 385.742 76.3697 384.376 74.3419C382.962 72.2407 381.079 70.5164 378.779 69.2177C376.462 67.912 373.592 67.2495 370.244 67.2495C366.894 67.2495 364.024 67.912 361.708 69.2177C359.408 70.5164 357.525 72.2407 356.11 74.3419C354.744 76.3697 353.446 78.9394 352.252 81.9806L319.964 163.712C319.507 164.836 319.113 165.843 318.752 166.788L311.428 185.237H337.795L347.83 158.193Z" fill="#0056C1"/>
<path fill-rule="evenodd" clip-rule="evenodd" d="M607.499 165.837H583.574V134.569H606.715C614.567 134.569 620.517 135.826 624.397 138.302C628.176 140.716 630.014 144.532 630.014 149.968C630.014 160.646 622.649 165.837 607.499 165.837ZM583.574 88.3178H601.383C609.652 88.3178 615.857 89.2424 619.823 91.068C623.567 92.7925 625.387 96.2407 625.387 101.609C625.387 104.104 624.779 106.387 623.558 108.434C622.004 111.289 619.827 113.167 616.905 114.177C613.868 115.226 609.464 115.759 603.815 115.759H583.574V88.3178ZM634.845 123.534C645.156 118.007 650.381 109.616 650.381 98.5612C650.381 95.1138 649.804 91.7958 648.668 88.6989C647.533 85.5997 645.861 82.7319 643.696 80.1683C641.542 77.6163 639.022 75.4762 636.214 73.8061C632.921 71.8185 629.152 70.456 625.01 69.7574C620.946 69.0727 616.085 68.7276 610.556 68.7276H573.31C568.069 68.7276 564.183 69.9514 561.761 72.3645C559.338 74.779 558.108 78.7042 558.108 84.0305V155.322V170.125V185.429H573.31H579.961H608.44C614.527 185.429 619.931 185.122 624.499 184.519C629.118 183.914 633.273 182.849 636.87 181.351C642.638 178.828 647.286 174.867 650.68 169.576C654.072 164.294 655.793 158.276 655.793 151.688C655.793 138.152 648.749 128.694 634.845 123.534Z" fill="#0056C1"/>
<path fill-rule="evenodd" clip-rule="evenodd" d="M55.7407 148.498C39.1043 121.693 30.1997 89.9788 36.1829 57.8449C38.225 46.8841 47.0517 38.371 58.1042 36.6356C67.9937 35.0832 75.1412 34.3057 89.148 35.4658C84.1002 43.8139 81.1134 52.1413 77.9736 60.2345C70.9776 59.9822 63.8508 61.3766 61.5931 62.0696C55.9089 83.0048 63.2444 118.846 85.4053 148.498H55.7407Z" fill="#0056C1"/>
<path fill-rule="evenodd" clip-rule="evenodd" d="M82.8602 83.262C90.1186 52.5874 106.331 23.888 133.367 5.38287C142.589 -0.930565 154.874 -0.730976 163.92 5.82918C172.015 11.6977 177.621 16.183 186.702 26.8721C177.207 29.2187 169.186 33.004 161.222 36.5135C156.454 31.4059 150.425 27.3711 148.336 26.2706C129.46 37.0693 109.209 67.5817 103.837 104.162L82.8602 83.262Z" fill="#0056C1"/>
<path fill-rule="evenodd" clip-rule="evenodd" d="M148.336 56.2389C175.239 39.6632 207.07 30.7911 239.321 36.7525C250.322 38.7872 258.867 47.5817 260.61 58.5939C262.166 68.4472 262.948 75.5687 261.784 89.5247C253.404 84.4948 245.047 81.5187 236.923 78.3907C237.177 71.4203 235.778 64.3195 235.081 62.07C214.069 56.4066 178.098 63.7152 148.336 85.795V56.2389Z" fill="#0056C1"/>
<path fill-rule="evenodd" clip-rule="evenodd" d="M213.813 83.2612C244.601 90.4932 273.404 106.646 291.977 133.584C298.314 142.773 298.114 155.013 291.529 164.026C285.639 172.09 281.138 177.676 270.41 186.724C268.054 177.263 264.255 169.273 260.733 161.337C265.859 156.586 269.908 150.58 271.013 148.498C260.175 129.691 229.551 109.514 192.836 104.161L213.813 83.2612Z" fill="#0056C1"/>
<path fill-rule="evenodd" clip-rule="evenodd" d="M240.934 148.497C257.57 175.301 266.475 207.015 260.49 239.15C258.449 250.111 249.622 258.625 238.57 260.36C228.681 261.911 221.533 262.689 207.526 261.529C212.574 253.181 215.561 244.853 218.701 236.76C225.697 237.013 232.822 235.619 235.081 234.925C240.765 213.99 233.43 178.148 211.268 148.497H240.934Z" fill="#0056C1"/>
<path fill-rule="evenodd" clip-rule="evenodd" d="M213.812 213.737C206.553 244.411 190.341 273.111 163.305 291.616C154.083 297.928 141.798 297.729 132.751 291.17C124.658 285.301 119.052 280.816 109.971 270.126C119.465 267.778 127.487 263.994 135.451 260.485C140.218 265.591 146.247 269.626 148.337 270.727C167.213 259.927 187.463 229.417 192.835 192.836L213.812 213.737Z" fill="#0056C1"/>
<path fill-rule="evenodd" clip-rule="evenodd" d="M148.336 240.758C121.433 257.334 89.6016 266.207 57.3509 260.243C46.3499 258.21 37.8043 249.414 36.064 238.402C34.5059 228.55 33.7255 221.429 34.8885 207.472C43.2686 212.501 51.6264 215.477 59.7492 218.607C59.4946 225.577 60.8955 232.676 61.591 234.926C82.6025 240.59 118.576 233.281 148.336 211.201V240.758Z" fill="#0056C1"/>
<path fill-rule="evenodd" clip-rule="evenodd" d="M82.861 213.737C52.0744 206.505 23.2699 190.353 4.69701 163.414C-1.63954 154.225 -1.43922 141.987 5.14496 132.972C11.035 124.909 15.5366 119.322 26.2649 110.274C28.6201 119.733 32.4193 127.726 35.9416 135.661C30.8153 140.411 26.7658 146.418 25.6612 148.5C36.4994 167.307 67.1236 187.484 103.838 192.838L82.861 213.737Z" fill="#0056C1"/>
<path fill-rule="evenodd" clip-rule="evenodd" d="M317.527 219.094H322.913L320.209 212.859L317.527 219.094ZM312.098 225.284L318.98 209.587H321.527L328.41 225.284H325.506L323.919 221.521H316.522L314.913 225.284H312.098Z" fill="#0056C1"/>
<path fill-rule="evenodd" clip-rule="evenodd" d="M330.243 225.282V223.434L337.058 215.729H330.489V213.527H340.5V215.375L333.684 223.077H340.5V225.282H330.243Z" fill="#0056C1"/>
<path fill-rule="evenodd" clip-rule="evenodd" d="M351.16 220.23H345.083C345.17 221.135 345.476 221.877 345.998 222.456C346.519 223.035 347.212 223.324 348.076 223.324C348.896 223.324 349.58 223.042 350.132 222.478C350.683 221.915 351.025 221.165 351.16 220.23ZM347.785 213.261C349.513 213.261 350.956 213.829 352.111 214.965C353.265 216.101 353.843 217.557 353.843 219.339V219.384C353.843 221.106 353.297 222.561 352.21 223.748C351.123 224.936 349.737 225.529 348.054 225.529C346.265 225.529 344.877 224.924 343.886 223.714C342.896 222.506 342.4 221.002 342.4 219.206C342.4 219.057 342.415 218.805 342.444 218.449H351.116C350.965 217.498 350.586 216.764 349.975 216.245C349.364 215.725 348.62 215.465 347.741 215.465C346.58 215.465 345.506 215.932 344.523 216.867L342.936 215.465C344.172 213.995 345.789 213.261 347.785 213.261Z" fill="#0056C1"/>
<path fill-rule="evenodd" clip-rule="evenodd" d="M356.547 225.285V213.53H359.273V216.178C360.108 214.174 361.5 213.216 363.452 213.304V216.156H363.297C362.058 216.156 361.079 216.553 360.357 217.346C359.634 218.142 359.273 219.295 359.273 220.809V225.285H356.547Z" fill="#0056C1"/>
<path fill-rule="evenodd" clip-rule="evenodd" d="M369.439 222.132C370.109 222.837 370.92 223.191 371.874 223.191C372.828 223.191 373.629 222.846 374.277 222.156C374.924 221.465 375.249 220.554 375.249 219.428V219.384C375.249 218.269 374.921 217.365 374.266 216.666C373.61 215.969 372.813 215.62 371.874 215.62C370.92 215.62 370.109 215.974 369.439 216.677C368.769 217.382 368.433 218.284 368.433 219.384V219.428C368.433 220.525 368.769 221.428 369.439 222.132ZM372.523 225.528C370.884 225.528 369.543 224.838 368.5 223.457V225.282H365.774V209.03H368.5V215.486C369.543 214.018 370.884 213.282 372.523 213.282C373.997 213.282 375.279 213.832 376.365 214.93C377.454 216.029 377.997 217.513 377.997 219.384V219.428C377.997 221.297 377.459 222.782 376.378 223.881C375.297 224.979 374.013 225.528 372.523 225.528Z" fill="#0056C1"/>
<path fill-rule="evenodd" clip-rule="evenodd" d="M384.948 223.567C385.855 223.567 386.608 223.335 387.205 222.866C387.802 222.399 388.099 221.795 388.099 221.053V220.249C387.295 219.939 386.4 219.784 385.417 219.784C384.538 219.784 383.856 219.955 383.372 220.295C382.889 220.638 382.647 221.118 382.647 221.743V221.787C382.647 222.335 382.861 222.771 383.295 223.089C383.725 223.41 384.277 223.567 384.948 223.567ZM384.189 225.527C383.01 225.527 382.017 225.209 381.206 224.571C380.394 223.932 379.987 223.041 379.987 221.899V221.855C379.987 220.607 380.43 219.664 381.317 219.027C382.202 218.388 383.392 218.068 384.88 218.068C385.968 218.068 387.026 218.232 388.053 218.559V218.269C388.053 216.561 387.078 215.709 385.127 215.709C384.053 215.709 382.929 215.954 381.753 216.444L381.016 214.328C382.52 213.69 384.009 213.372 385.485 213.372C387.241 213.372 388.546 213.809 389.394 214.685C390.244 215.53 390.669 216.74 390.669 218.313V225.283H388.032V223.813C387.078 224.956 385.797 225.527 384.189 225.527Z" fill="#0056C1"/>
<path fill-rule="evenodd" clip-rule="evenodd" d="M398.558 222.255L401.642 213.527H404.457L399.765 225.594C399.287 226.811 398.76 227.669 398.179 228.166C397.597 228.664 396.829 228.912 395.876 228.912C394.878 228.912 393.947 228.666 393.081 228.176L393.999 226.195C394.566 226.493 395.095 226.64 395.586 226.64C395.988 226.64 396.313 226.54 396.558 226.34C396.803 226.14 397.038 225.795 397.26 225.304L392.346 213.527H395.25L398.558 222.255Z" fill="#0056C1"/>
<path fill-rule="evenodd" clip-rule="evenodd" d="M411.563 225.55C409.82 225.55 408.367 224.961 407.204 223.782C406.042 222.601 405.461 221.165 405.461 219.472V219.428C405.461 217.735 406.046 216.287 407.217 215.085C408.385 213.883 409.85 213.282 411.607 213.282C413.47 213.282 415.041 213.959 416.323 215.308L414.625 217.112C413.684 216.132 412.673 215.642 411.584 215.642C410.616 215.642 409.804 216.005 409.149 216.733C408.493 217.461 408.167 218.344 408.167 219.384V219.428C408.167 220.482 408.497 221.372 409.16 222.1C409.822 222.826 410.668 223.191 411.697 223.191C412.769 223.191 413.79 222.709 414.758 221.743L416.389 223.346C415.749 224.058 415.055 224.603 414.311 224.983C413.566 225.362 412.649 225.55 411.563 225.55Z" fill="#0056C1"/>
<path fill-rule="evenodd" clip-rule="evenodd" d="M423.025 223.567C423.934 223.567 424.687 223.335 425.283 222.866C425.88 222.399 426.177 221.795 426.177 221.053V220.249C425.372 219.939 424.479 219.784 423.495 219.784C422.616 219.784 421.935 219.955 421.451 220.295C420.966 220.638 420.724 221.118 420.724 221.743V221.787C420.724 222.335 420.94 222.771 421.372 223.089C421.804 223.41 422.356 223.567 423.025 223.567ZM422.266 225.527C421.089 225.527 420.095 225.209 419.283 224.571C418.471 223.932 418.066 223.041 418.066 221.899V221.855C418.066 220.607 418.508 219.664 419.394 219.027C420.28 218.388 421.469 218.068 422.958 218.068C424.047 218.068 425.103 218.232 426.132 218.559V218.269C426.132 216.561 425.157 215.709 423.204 215.709C422.132 215.709 421.006 215.954 419.83 216.444L419.093 214.328C420.598 213.69 422.087 213.372 423.562 213.372C425.319 213.372 426.624 213.809 427.473 214.685C428.323 215.53 428.746 216.74 428.746 218.313V225.283H426.111V223.813C425.157 224.956 423.875 225.527 422.266 225.527Z" fill="#0056C1"/>
<path fill-rule="evenodd" clip-rule="evenodd" d="M431.965 225.283V213.527H434.692V215.329C435.676 213.964 436.904 213.282 438.378 213.282C439.705 213.282 440.736 213.686 441.474 214.495C442.211 215.304 442.579 216.399 442.579 217.78V225.283H439.877V218.603C439.877 217.683 439.655 216.975 439.217 216.475C438.776 215.979 438.154 215.73 437.351 215.73C436.546 215.73 435.902 215.99 435.417 216.51C434.934 217.029 434.692 217.742 434.692 218.647V225.283H431.965Z" fill="#0056C1"/>
<path fill-rule="evenodd" clip-rule="evenodd" d="M465.82 220.718V220.674C465.82 219.278 464.748 218.581 462.603 218.581H458.245V222.855H462.803C463.758 222.855 464.497 222.673 465.027 222.309C465.556 221.946 465.82 221.415 465.82 220.718ZM464.948 214.149V214.105C464.948 213.481 464.713 212.996 464.244 212.647C463.774 212.299 463.094 212.123 462.2 212.123H458.245V216.264H461.999C462.923 216.264 463.645 216.085 464.167 215.729C464.688 215.375 464.948 214.848 464.948 214.149ZM455.54 225.282V209.696H462.557C464.358 209.696 465.723 210.156 466.647 211.077C467.346 211.775 467.697 212.636 467.697 213.659V213.703C467.697 215.249 466.951 216.406 465.461 217.176C466.476 217.534 467.247 218.001 467.775 218.581C468.303 219.159 468.569 219.953 468.569 220.963V221.008C468.569 222.372 468.048 223.426 467.005 224.167C465.962 224.911 464.553 225.282 462.779 225.282H455.54Z" fill="#0056C1"/>
<path fill-rule="evenodd" clip-rule="evenodd" d="M473.396 218.581H479.451C479.362 217.676 479.056 216.933 478.534 216.355C478.013 215.776 477.32 215.485 476.456 215.485C475.623 215.485 474.933 215.768 474.39 216.332C473.845 216.895 473.514 217.645 473.396 218.581ZM476.769 225.548C475.041 225.548 473.599 224.981 472.444 223.847C471.289 222.71 470.714 221.245 470.714 219.449V219.404C470.714 217.683 471.257 216.231 472.345 215.052C473.432 213.872 474.811 213.282 476.48 213.282C478.267 213.282 479.655 213.886 480.647 215.095C481.638 216.305 482.132 217.809 482.132 219.604C482.132 219.753 482.117 220.004 482.088 220.362H473.418C473.567 221.313 473.946 222.046 474.557 222.566C475.168 223.085 475.919 223.346 476.813 223.346C477.961 223.346 479.026 222.877 480.01 221.943L481.597 223.346C480.344 224.815 478.736 225.548 476.769 225.548Z" fill="#0056C1"/>
<path fill-rule="evenodd" clip-rule="evenodd" d="M489.395 222.255L492.479 213.527H495.295L490.602 225.594C490.125 226.811 489.597 227.669 489.017 228.166C488.436 228.664 487.667 228.912 486.713 228.912C485.716 228.912 484.785 228.666 483.92 228.176L484.838 226.195C485.403 226.493 485.933 226.64 486.424 226.64C486.826 226.64 487.15 226.54 487.396 226.34C487.641 226.14 487.876 225.795 488.099 225.304L483.183 213.527H486.089L489.395 222.255Z" fill="#0056C1"/>
<path fill-rule="evenodd" clip-rule="evenodd" d="M497.596 225.283V213.527H500.323V215.329C501.307 213.964 502.537 213.282 504.009 213.282C505.335 213.282 506.368 213.686 507.105 214.495C507.842 215.304 508.212 216.399 508.212 217.78V225.283H505.508V218.603C505.508 217.683 505.287 216.975 504.848 216.475C504.407 215.979 503.786 215.73 502.982 215.73C502.178 215.73 501.533 215.99 501.049 216.51C500.565 217.029 500.323 217.742 500.323 218.647V225.283H497.596Z" fill="#0056C1"/>
<path fill-rule="evenodd" clip-rule="evenodd" d="M519.564 220.23H513.486C513.574 221.135 513.879 221.877 514.401 222.456C514.923 223.035 515.616 223.324 516.48 223.324C517.299 223.324 517.983 223.042 518.535 222.478C519.087 221.915 519.428 221.165 519.564 220.23ZM516.188 213.261C517.917 213.261 519.359 213.829 520.514 214.965C521.667 216.101 522.246 217.557 522.246 219.339V219.384C522.246 221.106 521.7 222.561 520.614 223.748C519.526 224.936 518.141 225.529 516.457 225.529C514.668 225.529 513.28 224.924 512.29 223.714C511.299 222.506 510.804 221.002 510.804 219.206C510.804 219.057 510.818 218.805 510.848 218.449H519.519C519.369 217.498 518.99 216.764 518.379 216.245C517.768 215.725 517.024 215.465 516.145 215.465C514.983 215.465 513.91 215.932 512.927 216.867L511.34 215.465C512.577 213.995 514.193 213.261 516.188 213.261Z" fill="#0056C1"/>
<path fill-rule="evenodd" clip-rule="evenodd" d="M525.105 225.284H527.831V209.03H525.105V225.284Z" fill="#0056C1"/>
<path fill-rule="evenodd" clip-rule="evenodd" d="M533.44 213.527L536.143 217.468L538.892 213.527H541.774L537.619 219.272L541.954 225.282H539.003L536.099 221.096L533.216 225.282H530.333L534.646 219.293L530.489 213.527H533.44Z" fill="#0056C1"/>
<path fill-rule="evenodd" clip-rule="evenodd" d="M548.144 223.567C549.052 223.567 549.805 223.335 550.402 222.866C550.997 222.399 551.295 221.795 551.295 221.053V220.249C550.491 219.939 549.596 219.784 548.615 219.784C547.733 219.784 547.053 219.955 546.568 220.295C546.085 220.638 545.843 221.118 545.843 221.743V221.787C545.843 222.335 546.059 222.771 546.491 223.089C546.923 223.41 547.475 223.567 548.144 223.567ZM547.385 225.527C546.206 225.527 545.213 225.209 544.402 224.571C543.589 223.932 543.183 223.041 543.183 221.899V221.855C543.183 220.607 543.626 219.664 544.513 219.027C545.398 218.388 546.587 218.068 548.077 218.068C549.164 218.068 550.223 218.232 551.25 218.559V218.269C551.25 216.561 550.274 215.709 548.323 215.709C547.249 215.709 546.125 215.954 544.949 216.444L544.211 214.328C545.716 213.69 547.205 213.372 548.681 213.372C550.438 213.372 551.742 213.809 552.592 214.685C553.441 215.53 553.864 216.74 553.864 218.313V225.283H551.228V223.813C550.274 224.956 548.993 225.527 547.385 225.527Z" fill="#0056C1"/>
<path fill-rule="evenodd" clip-rule="evenodd" d="M557.24 225.284H559.966V209.03H557.24V225.284Z" fill="#0056C1"/>
<path fill-rule="evenodd" clip-rule="evenodd" d="M569.015 223.189C569.954 223.189 570.759 222.836 571.428 222.131C572.099 221.428 572.434 220.524 572.434 219.426V219.382C572.434 218.283 572.099 217.382 571.428 216.677C570.759 215.972 569.954 215.619 569.015 215.619C568.061 215.619 567.256 215.964 566.603 216.654C565.946 217.345 565.619 218.254 565.619 219.382V219.426C565.619 220.54 565.946 221.445 566.603 222.143C567.256 222.84 568.061 223.189 569.015 223.189ZM572.389 228.844V223.323C571.348 224.792 570.007 225.528 568.367 225.528C566.894 225.528 565.612 224.977 564.523 223.88C563.437 222.781 562.892 221.297 562.892 219.426V219.382C562.892 217.511 563.432 216.028 564.513 214.929C565.592 213.831 566.878 213.282 568.367 213.282C570.022 213.282 571.362 213.972 572.389 215.353V213.526H575.094V228.844H572.389Z" fill="#0056C1"/>
<path fill-rule="evenodd" clip-rule="evenodd" d="M598.021 220.718V220.674C598.021 219.278 596.949 218.581 594.804 218.581H590.445V222.855H595.004C595.958 222.855 596.699 222.673 597.227 222.309C597.757 221.946 598.021 221.415 598.021 220.718ZM597.149 214.149V214.105C597.149 213.481 596.914 212.996 596.445 212.647C595.975 212.299 595.295 212.123 594.4 212.123H590.445V216.264H594.2C595.123 216.264 595.846 216.085 596.367 215.729C596.889 215.375 597.149 214.848 597.149 214.149ZM587.741 225.282V209.696H594.758C596.559 209.696 597.924 210.156 598.847 211.077C599.548 211.775 599.898 212.636 599.898 213.659V213.703C599.898 215.249 599.152 216.406 597.662 217.176C598.677 217.534 599.447 218.001 599.976 218.581C600.504 219.159 600.77 219.953 600.77 220.963V221.008C600.77 222.372 600.249 223.426 599.205 224.167C598.164 224.911 596.754 225.282 594.98 225.282H587.741Z" fill="#0056C1"/>
<path fill-rule="evenodd" clip-rule="evenodd" d="M607.719 223.567C608.627 223.567 609.379 223.335 609.975 222.866C610.572 222.399 610.871 221.795 610.871 221.053V220.249C610.065 219.939 609.171 219.784 608.189 219.784C607.31 219.784 606.628 219.955 606.144 220.295C605.66 220.638 605.418 221.118 605.418 221.743V221.787C605.418 222.335 605.633 222.771 606.066 223.089C606.497 223.41 607.05 223.567 607.719 223.567ZM606.959 225.527C605.781 225.527 604.789 225.209 603.977 224.571C603.164 223.932 602.759 223.041 602.759 221.899V221.855C602.759 220.607 603.202 219.664 604.088 219.027C604.974 218.388 606.162 218.068 607.652 218.068C608.739 218.068 609.797 218.232 610.825 218.559V218.269C610.825 216.561 609.848 215.709 607.898 215.709C606.824 215.709 605.7 215.954 604.523 216.444L603.786 214.328C605.291 213.69 606.779 213.372 608.255 213.372C610.012 213.372 611.317 213.809 612.166 214.685C613.016 215.53 613.439 216.74 613.439 218.313V225.283H610.803V223.813C609.849 224.956 608.569 225.527 606.959 225.527Z" fill="#0056C1"/>
<path fill-rule="evenodd" clip-rule="evenodd" d="M616.657 225.283V213.527H619.382V215.329C620.366 213.964 621.595 213.282 623.07 213.282C624.396 213.282 625.428 213.686 626.165 214.495C626.902 215.304 627.271 216.399 627.271 217.78V225.283H624.568V218.603C624.568 217.683 624.347 216.975 623.909 216.475C623.468 215.979 622.846 215.73 622.042 215.73C621.238 215.73 620.593 215.99 620.109 216.51C619.625 217.029 619.382 217.742 619.382 218.647V225.283H616.657Z" fill="#0056C1"/>
<path fill-rule="evenodd" clip-rule="evenodd" d="M630.513 225.284V209.03H633.239V218.737L638.133 213.529H641.418L636.725 218.315L641.574 225.284H638.402L634.915 220.184L633.239 221.921V225.284H630.513Z" fill="#0056C1"/>
<path fill-rule="evenodd" clip-rule="evenodd" d="M643.674 225.282H646.4V213.527H643.674V225.282Z" fill="#0056C1"/>
</svg>
