<svg width="128" height="128" viewBox="0 0 128 128" fill="none" xmlns="http://www.w3.org/2000/svg">
<g clip-path="url(#clip0_86_67)">
<path d="M0.0209045 0.358358C1.35152 0.420686 2.7031 0.375083 4.03577 0.375254H11.3586L33.949 0.372934C38.9717 0.372558 44.6109 0.0408833 49.5364 0.948284C53.4968 1.67792 56.9795 3.16296 60.5126 5.04377C57.2017 7.42802 53.8167 11.7354 51.8741 15.3033C48.797 14.45 45.5342 14.5927 42.3725 14.5954L35.5024 14.5978L14.4108 14.6005L14.4213 74.5899L14.422 99.825C14.4224 104.481 14.4859 109.149 14.3975 113.804L36.9862 113.809L43.69 113.813C45.6455 113.813 47.5928 113.855 49.534 113.571C52.2325 113.191 54.8362 112.308 57.2099 110.968C62.6053 107.994 66.2446 103.022 67.9482 97.1732C69.3026 91.9477 68.8818 86.1344 66.2975 81.3384C67.8943 79.1811 69.4982 77.6195 71.6261 75.9897C72.207 77.1243 72.9361 78.1803 73.5061 79.3293C75.7897 83.9093 76.9833 88.9549 76.9949 94.0721C77.0919 103.053 73.5761 111.696 67.2376 118.058C61.8216 123.512 54.7031 126.95 47.0641 127.801C44.2365 128.089 41.3239 127.964 38.4816 127.963L27.4367 127.961L0.0354111 127.973C0.142248 119.467 0.0559256 110.949 0.0560621 102.442L0.0580074 54.715L0.0578707 19.3672C0.0575635 13.0379 0.179351 6.68378 0.0209045 0.358358Z" fill="white"/>
<path d="M84.2141 0.382433C87.9039 0.32799 91.5999 0.374378 95.2907 0.374412L127.933 0.362806C127.85 7.23364 127.913 14.1124 127.913 20.9838L127.912 58.7496L127.928 127.969L96.2679 127.959L87.3817 127.963C84.6797 127.964 81.9767 128.028 79.3003 127.587C74.9858 126.875 71.3492 125.37 67.5055 123.353C70.5983 120.813 74.3898 116.674 76.1006 113.046C79.1224 113.988 82.5317 113.779 85.6641 113.777L92.8959 113.771L111.573 113.772L113.594 113.781C113.51 108.573 113.575 103.355 113.575 98.1452L113.574 69.1759V33.9176L113.592 14.5906L91.0875 14.5961L84.607 14.5933C82.488 14.593 80.3843 14.5708 78.2824 14.8865C75.6391 15.2835 73.1587 16.1659 70.8222 17.4527C65.6544 20.3236 61.8394 25.13 60.2156 30.8142C58.7086 36.0557 59.0691 42.2045 61.7387 47.0268C60.1716 49.2649 58.4666 50.6733 56.4163 52.4042C55.8165 51.3263 55.1557 50.2855 54.6031 49.1817C52.379 44.7522 51.1611 39.8858 51.0372 34.9307C50.7982 25.9686 54.1433 17.281 60.3307 10.7934C66.6167 4.19601 75.1439 0.607917 84.2141 0.382433Z" fill="white"/>
<path d="M74.0352 20.3929C74.2588 20.5523 74.3687 20.9138 74.4762 21.164C77.811 28.9328 77.896 39.1284 74.765 46.9661C71.4588 55.3557 64.9424 62.08 56.6606 65.6483C48.2478 69.2371 38.9727 69.1954 30.5162 65.793C30.2216 65.6609 29.9124 65.5595 29.6086 65.451C30.0831 64.6898 30.4913 63.8911 30.978 63.1374C32.3935 60.9471 34.1917 59.1824 36.3216 57.6904C37.4736 58.2499 38.6379 58.7513 39.867 59.1172C45.5745 60.8106 51.7198 60.1798 56.9641 57.3621C62.2315 54.5317 66.148 49.7114 67.8403 43.9757C69.3808 38.7758 68.9858 31.8846 66.3395 27.0291C68.6633 23.9353 70.6406 22.2382 74.0352 20.3929Z" fill="white"/>
<path d="M82.1828 60.1955C87.8462 59.8672 93.0516 60.827 98.2572 63.0511C96.3249 66.5068 94.6941 68.4155 91.5541 70.8366C91.422 70.7478 91.2906 70.6652 91.1507 70.5891C86.3853 67.9967 80.2823 67.8148 75.1462 69.3214C69.4282 71.0386 64.6277 74.9592 61.8028 80.2191C58.6817 85.9989 58.5182 92.4867 60.386 98.6662C60.7194 99.6205 61.0488 100.56 61.5731 101.431C61.0024 102.107 60.502 102.841 59.9146 103.506C58.1356 105.521 56.0804 106.847 53.7627 108.147C52.3226 104.501 51.3058 100.84 50.9979 96.9179C50.2777 87.7401 52.9405 78.8589 58.9619 71.8299C64.8684 64.9353 73.1679 60.8901 82.1828 60.1955Z" fill="white"/>
</g>
<defs>
<clipPath id="clip0_86_67">
<rect width="128" height="128" fill="white"/>
</clipPath>
</defs>
</svg>
