<svg width="1361" height="280" viewBox="0 0 1361 280" fill="none" xmlns="http://www.w3.org/2000/svg">
<g clip-path="url(#clip0_67_277)">
<path d="M272.681 279.957H7.87714L140.279 147.468L272.681 279.957Z" fill="white"/>
<path d="M132.816 140L0.413818 272.576V7.51045L132.816 140Z" fill="white"/>
<path d="M272.681 0.0431968L140.279 132.62L7.87714 0.0431968H272.681Z" fill="white"/>
<path d="M322.827 143.567L311.377 156.13V189.8H286.668V66.1762H311.377V122.661L362.099 66.1762H393.638L338.998 125.877L395.948 189.8H363.606L322.827 143.567Z" fill="white"/>
<path d="M491.267 98.4403V189.801H467.964V178.846C460.632 186.887 450.387 191.912 438.234 191.912C412.822 191.912 393.638 171.308 393.638 144.07C393.638 116.833 412.822 96.2291 438.234 96.2291C450.387 96.2291 460.632 101.254 467.964 109.295V98.4403H491.267ZM467.964 144.171C467.964 129.798 457.217 118.944 442.754 118.944C428.39 118.944 417.643 129.899 417.643 144.171C417.643 158.443 428.39 169.398 442.754 169.398C457.217 169.398 467.964 158.443 467.964 144.171Z" fill="white"/>
<path d="M608.178 144.172C608.178 171.409 589.195 192.013 563.783 192.013C551.63 192.013 541.385 187.189 534.053 178.947V223.974H510.75V98.4409H534.053V109.396C541.385 101.155 551.63 96.3303 563.783 96.3303C589.195 96.3303 608.178 116.934 608.178 144.172ZM584.173 144.172C584.173 129.799 573.626 118.944 559.062 118.944C544.699 118.944 533.952 129.9 533.952 144.172C533.952 158.444 544.699 169.399 559.062 169.399C573.626 169.399 584.173 158.444 584.173 144.172Z" fill="white"/>
<path d="M619.228 70.4987C619.228 62.2572 625.656 56.0257 633.893 56.0257C642.129 56.0257 648.557 62.2572 648.557 70.4987C648.557 78.7403 642.129 84.9718 633.893 84.9718C625.656 84.9718 619.228 78.7403 619.228 70.4987ZM622.342 98.4397H645.644V189.801H622.342V98.4397Z" fill="white"/>
<path d="M697.87 119.748V157.74C697.87 165.479 702.189 169.399 710.425 169.399C715.046 169.399 719.063 167.992 722.378 166.384V188.093C717.356 190.807 712.133 192.013 705.403 192.013C684.411 192.013 674.568 179.852 674.568 161.559V119.849H660.104V98.4409H674.568V75.3243H697.87V98.4409H722.378V119.748H697.87Z" fill="white"/>
<path d="M832.163 98.4403V189.801H808.86V178.846C801.528 186.887 791.283 191.912 779.13 191.912C753.718 191.912 734.534 171.308 734.534 144.07C734.534 116.833 753.718 96.2291 779.13 96.2291C791.283 96.2291 801.528 101.254 808.86 109.295V98.4403H832.163ZM808.86 144.171C808.86 129.798 798.113 118.944 783.65 118.944C769.287 118.944 758.539 129.899 758.539 144.171C758.539 158.443 769.287 169.398 783.65 169.398C798.113 169.398 808.86 158.443 808.86 144.171Z" fill="white"/>
<path d="M851.548 60.8511H874.85V189.902H851.548V60.8511Z" fill="white"/>
<path d="M1036.16 156.331C1036.16 175.829 1021.29 189.8 1001.4 189.8H939.231V66.1762H997.286C1015.77 66.1762 1030.03 79.4431 1030.03 97.7354C1030.03 109.394 1023.9 119.646 1015.67 124.269C1027.72 128.591 1036.16 141.657 1036.16 156.331ZM963.337 88.3883V115.626H991.26C998.592 115.626 1004.72 109.696 1004.72 102.057C1004.72 94.3182 998.994 88.4888 991.26 88.4888H963.337V88.3883ZM1010.75 152.009C1010.75 143.366 1004.12 136.632 995.378 136.632H963.337V167.588H995.378C1004.12 167.588 1010.75 160.854 1010.75 152.009Z" fill="white"/>
<path d="M1146.34 98.4403V189.801H1123.04V178.846C1115.71 186.887 1105.46 191.912 1093.31 191.912C1067.9 191.912 1048.71 171.308 1048.71 144.07C1048.71 116.833 1067.9 96.2291 1093.31 96.2291C1105.46 96.2291 1115.71 101.254 1123.04 109.295V98.4403H1146.34ZM1123.04 144.171C1123.04 129.798 1112.29 118.944 1097.83 118.944C1083.47 118.944 1072.72 129.899 1072.72 144.171C1072.72 158.443 1083.47 169.398 1097.83 169.398C1112.29 169.398 1123.04 158.443 1123.04 144.171Z" fill="white"/>
<path d="M1253.71 131.809V189.902H1230.41V139.347C1230.41 126.985 1222.58 118.944 1210.32 118.944C1197.57 118.944 1189.03 127.186 1189.03 139.749V189.902H1165.73V98.4409H1189.03V108.693C1196.16 100.652 1206.21 96.3302 1218.06 96.3302C1239.55 96.3302 1253.71 110.301 1253.71 131.809Z" fill="white"/>
<path d="M1303.64 158.343L1295.6 167.087V189.802H1272.3V60.8511H1295.6V135.93L1329.25 98.4408H1359.28L1320.11 140.754L1360.59 189.802H1330.15L1303.64 158.343Z" fill="white"/>
</g>
<defs>
<clipPath id="clip0_67_277">
<rect width="1361" height="280" fill="white"/>
</clipPath>
</defs>
</svg>
