<svg width="128" height="128" viewBox="0 0 128 128" fill="none" xmlns="http://www.w3.org/2000/svg">
<path fill-rule="evenodd" clip-rule="evenodd" d="M86.6877 18.7041H109.231V55.2534H72.6193V47.0081L92.8429 26.8241L93.8364 25.8374L86.6877 18.7041Z" fill="white"/>
<path fill-rule="evenodd" clip-rule="evenodd" d="M63.9843 0L89.8785 25.84L63.9843 51.6827L58.1514 45.856V15.9093H48.0435L63.9843 0Z" fill="white"/>
<path fill-rule="evenodd" clip-rule="evenodd" d="M18.7428 18.7041V41.2108L24.8954 35.0721L25.8942 34.0854L47.0927 55.2561H55.3574V18.7041H18.7428Z" fill="white"/>
<path fill-rule="evenodd" clip-rule="evenodd" d="M0 63.8746L25.8942 38.032L51.775 63.8746L45.9367 69.7066H15.9408V79.792L0 63.8746Z" fill="white"/>
<path fill-rule="evenodd" clip-rule="evenodd" d="M18.7428 109.048V72.4961H55.3574V80.7414L35.1337 100.925L34.1403 101.912L35.1337 102.899L41.289 109.048H18.7428Z" fill="white"/>
<path fill-rule="evenodd" clip-rule="evenodd" d="M63.9923 127.752L38.0981 101.912L63.9923 76.0667L69.8173 81.888V111.84H79.9331L63.9923 127.752Z" fill="white"/>
<path fill-rule="evenodd" clip-rule="evenodd" d="M109.231 109.048H72.614V72.4961H80.8787L101.094 92.6881L102.088 93.6668L103.073 92.6801L109.231 86.5388V109.048Z" fill="white"/>
<path fill-rule="evenodd" clip-rule="evenodd" d="M102.09 89.7226L76.207 63.8746L82.04 58.048H112.036V47.9626L127.977 63.8746L102.09 89.7226Z" fill="white"/>
</svg>
