<svg width="277" height="128" viewBox="0 0 277 128" fill="none" xmlns="http://www.w3.org/2000/svg">
<g clip-path="url(#clip0_72_57)">
<path fill-rule="evenodd" clip-rule="evenodd" d="M145.862 72.4747H158.7C167.652 72.4747 172.318 75.6853 172.318 82.5573C172.318 85.608 170.502 87.8827 168.64 89.0693V89.1707C171.127 90.0507 174.952 92.736 174.952 97.752C174.952 104.419 171.018 109.016 160.25 109.016H145.862V72.4747ZM157.874 87.464C161.704 87.464 163.619 86.7973 163.619 83.536C163.619 80.4373 161.547 79.1973 157.411 79.1973H154.713V87.464H157.874ZM159.158 102.141C163.822 102.141 166.155 100.907 166.155 97.9547C166.155 94.648 163.619 93.4587 158.543 93.4587H154.713V102.141H159.158ZM177.727 100.957C177.727 93.824 184.256 92.3787 189.838 92.3787H194.758V90.6187C194.758 88.1413 193.16 87.4187 189.636 87.4187C186.844 87.4187 183.829 88.0347 181.198 88.6587L179.485 82.408C182.695 81.1627 186.421 80.1307 190.928 80.1307C199.68 80.1307 203.198 82.608 203.198 88.9653V101.523C203.198 102.461 204.13 102.667 205.739 102.709L205.43 109.224C204.751 109.283 204.08 109.283 203.406 109.283C199.994 109.283 196.366 108.709 195.583 106.28C193.516 107.88 190.563 109.48 187.46 109.48C181.243 109.48 177.727 106.587 177.727 100.957ZM194.758 101.837V97.3867L190.512 97.496C187.974 97.5387 186.117 98.3653 186.117 100.437C186.117 102.091 187.721 102.813 189.268 102.813C190.928 102.813 192.901 102.347 194.758 101.832M209.974 80.8027H218.617V83.6453C220.322 82.352 224.058 80.0773 227.833 80.0773C236.686 80.0773 237.314 84.9333 237.314 91.344V109.016H228.711V92.064C228.711 88.1893 227.833 87.5173 224.935 87.5173C222.346 87.5173 220.015 88.3493 218.617 89.0213V109.016H209.974V80.8V80.8027ZM242.884 70.0533H251.527V91.24L259.355 80.8027H268.615L258.308 93.824L270.32 109.016H259.661L251.527 97.3893V109.016H242.881L242.884 70.0533Z" fill="#C50B30"/>
<path fill-rule="evenodd" clip-rule="evenodd" d="M86.6877 18.704H109.231V55.2533H72.6193V47.008L92.8429 26.824L93.8364 25.8373L86.6877 18.704Z" fill="#027C57"/>
<path fill-rule="evenodd" clip-rule="evenodd" d="M63.9843 0L89.8785 25.84L63.9843 51.6827L58.1514 45.856V15.9093H48.0435L63.9843 0Z" fill="#C50B30"/>
<path fill-rule="evenodd" clip-rule="evenodd" d="M18.7428 18.704V41.2106L24.8954 35.072L25.8942 34.0853L47.0927 55.256H55.3574V18.704H18.7428Z" fill="#027C57"/>
<path fill-rule="evenodd" clip-rule="evenodd" d="M0 63.8746L25.8942 38.032L51.775 63.8746L45.9367 69.7066H15.9408V79.792L0 63.8746Z" fill="#C50B30"/>
<path fill-rule="evenodd" clip-rule="evenodd" d="M18.7428 109.048V72.496H55.3574V80.7413L35.1337 100.925L34.1403 101.912L35.1337 102.899L41.289 109.048H18.7428Z" fill="#027C57"/>
<path fill-rule="evenodd" clip-rule="evenodd" d="M63.9923 127.752L38.0981 101.912L63.9923 76.0667L69.8173 81.888V111.84H79.9331L63.9923 127.752Z" fill="#C50B30"/>
<path fill-rule="evenodd" clip-rule="evenodd" d="M109.231 109.048H72.614V72.496H80.8787L101.094 92.688L102.088 93.6666L103.073 92.68L109.231 86.5386V109.048Z" fill="#027C57"/>
<path fill-rule="evenodd" clip-rule="evenodd" d="M102.09 89.7226L76.207 63.8746L82.04 58.048H112.036V47.9626L127.977 63.8746L102.09 89.7226Z" fill="#C50B30"/>
<path fill-rule="evenodd" clip-rule="evenodd" d="M145.862 18.744H160.063C168.275 18.744 174.158 23.544 174.158 31.6854C174.158 38.8507 168.272 44.8827 157.376 44.8827H154.686V55.1894H145.862V18.744ZM157.682 38.128C163.161 38.128 165.116 35.2934 165.116 31.896C165.116 28.2294 163.624 25.6027 158.923 25.6027H154.689V38.128H157.682ZM211.327 53.1787L213.812 46.8907C217.067 48.0294 219.432 48.544 223.462 48.544C227.859 48.544 229.867 47.2027 229.867 44.9867C229.867 39.0587 212.518 40.656 212.518 28.2854C212.518 21.272 219.179 18.2294 225.638 18.2294C231.418 18.2294 234.209 19.4694 237.045 20.7094L234.515 26.784C231.83 26.0187 229.606 25.2907 225.894 25.2907C222.231 25.2907 221.089 26.6827 221.089 28.2294C221.089 33.0774 238.753 33.0774 238.753 44.6747C238.753 52.664 231.109 55.7574 223.571 55.7574C217.584 55.7574 214.065 54.672 211.327 53.1787ZM197.227 18.744H185.241L172.944 55.1894H182.045L185.497 44.5227H196.971L200.423 55.1894H209.516L197.227 18.744ZM187.569 38.1814L191.231 24.1547L194.899 38.1814H187.569Z" fill="#099A71"/>
<path fill-rule="evenodd" clip-rule="evenodd" d="M146.49 18.6666H160.849C169.151 18.6666 175.104 23.472 175.104 31.6106C175.104 38.776 169.151 44.8106 158.138 44.8106H155.421V55.1306H146.49V18.6666ZM158.449 38.0533C163.989 38.0533 165.963 35.208 165.963 31.8186C165.963 28.1573 164.458 25.5333 159.704 25.5333H155.421V38.0533H158.447H158.449ZM263.88 18.6666H251.947L239.712 55.128H248.767L252.203 44.456H263.624L267.076 55.128H276.132L263.88 18.6666ZM254.265 38.1173L257.924 24.0826L261.568 38.1173H254.265ZM198.1 18.6666H186.16L173.924 55.128H182.98L186.416 44.456H197.837L201.288 55.128H210.344L198.1 18.6666ZM188.472 38.1173L192.129 24.0826L195.778 38.1173H188.472ZM229.367 54.4853C229.889 55.9253 230.485 58.2213 230.485 59.68C230.485 64.2186 225.886 66.6853 222.828 68.152L220.082 62.5333C221.299 61.6906 223.757 60.5786 223.757 58.6133C223.757 57.5466 223.528 56.2213 223.294 55.12C217.972 55.0533 214.782 54.0266 212.278 52.632L214.622 46.5146C217.706 47.6186 219.967 48.12 223.792 48.12C227.947 48.12 229.87 46.8213 229.87 44.664C229.87 38.904 213.397 40.4693 213.397 28.44C213.397 21.6266 219.717 18.6666 225.84 18.6666C231.343 18.6666 233.982 19.88 236.681 21.0773L234.278 26.9946C231.729 26.24 229.62 25.5413 226.099 25.5413C222.609 25.5413 221.531 26.8853 221.531 28.3866C221.531 33.1066 238.292 33.1066 238.292 44.368C238.292 50.1066 234.326 53.2426 229.367 54.4853Z" fill="#027C57"/>
</g>
<defs>
<clipPath id="clip0_72_57">
<rect width="277" height="128" fill="white"/>
</clipPath>
</defs>
</svg>
