<svg width="277" height="128" viewBox="0 0 277 128" fill="none" xmlns="http://www.w3.org/2000/svg">
<g clip-path="url(#clip0_72_93)">
<path fill-rule="evenodd" clip-rule="evenodd" d="M145.862 72.4746H158.7C167.652 72.4746 172.318 75.6852 172.318 82.5572C172.318 85.6079 170.502 87.8826 168.64 89.0692V89.1706C171.127 90.0506 174.952 92.7359 174.952 97.7519C174.952 104.419 171.018 109.016 160.25 109.016H145.862V72.4746ZM157.874 87.4639C161.704 87.4639 163.619 86.7972 163.619 83.5359C163.619 80.4372 161.547 79.1972 157.411 79.1972H154.713V87.4639H157.874ZM159.158 102.141C163.822 102.141 166.155 100.907 166.155 97.9546C166.155 94.6479 163.619 93.4586 158.543 93.4586H154.713V102.141H159.158ZM177.727 100.957C177.727 93.8239 184.256 92.3786 189.838 92.3786H194.758V90.6186C194.758 88.1412 193.16 87.4186 189.636 87.4186C186.844 87.4186 183.829 88.0346 181.198 88.6586L179.485 82.4079C182.695 81.1626 186.421 80.1306 190.928 80.1306C199.68 80.1306 203.198 82.6079 203.198 88.9652V101.523C203.198 102.461 204.13 102.667 205.739 102.709L205.43 109.224C204.751 109.283 204.08 109.283 203.406 109.283C199.994 109.283 196.366 108.709 195.583 106.28C193.516 107.88 190.563 109.48 187.46 109.48C181.243 109.48 177.727 106.587 177.727 100.957ZM194.758 101.837V97.3866L190.512 97.4959C187.974 97.5386 186.117 98.3652 186.117 100.437C186.117 102.091 187.721 102.813 189.268 102.813C190.928 102.813 192.901 102.347 194.758 101.832M209.974 80.8026H218.617V83.6452C220.322 82.3519 224.058 80.0772 227.833 80.0772C236.686 80.0772 237.314 84.9332 237.314 91.3439V109.016H228.711V92.0639C228.711 88.1892 227.833 87.5172 224.935 87.5172C222.346 87.5172 220.015 88.3492 218.617 89.0212V109.016H209.974V80.7999V80.8026ZM242.884 70.0532H251.527V91.2399L259.355 80.8026H268.615L258.308 93.8239L270.32 109.016H259.661L251.527 97.3892V109.016H242.881L242.884 70.0532Z" fill="white"/>
<path fill-rule="evenodd" clip-rule="evenodd" d="M86.6877 18.7041H109.231V55.2534H72.6193V47.0081L92.8429 26.8241L93.8364 25.8374L86.6877 18.7041Z" fill="white"/>
<path fill-rule="evenodd" clip-rule="evenodd" d="M63.9843 0L89.8785 25.84L63.9843 51.6827L58.1514 45.856V15.9093H48.0435L63.9843 0Z" fill="white"/>
<path fill-rule="evenodd" clip-rule="evenodd" d="M18.7428 18.7041V41.2108L24.8954 35.0721L25.8942 34.0854L47.0927 55.2561H55.3574V18.7041H18.7428Z" fill="white"/>
<path fill-rule="evenodd" clip-rule="evenodd" d="M0 63.8746L25.8942 38.032L51.775 63.8746L45.9367 69.7066H15.9408V79.792L0 63.8746Z" fill="white"/>
<path fill-rule="evenodd" clip-rule="evenodd" d="M18.7428 109.048V72.4961H55.3574V80.7414L35.1337 100.925L34.1403 101.912L35.1337 102.899L41.289 109.048H18.7428Z" fill="white"/>
<path fill-rule="evenodd" clip-rule="evenodd" d="M63.9923 127.752L38.0981 101.912L63.9923 76.0667L69.8173 81.888V111.84H79.9331L63.9923 127.752Z" fill="white"/>
<path fill-rule="evenodd" clip-rule="evenodd" d="M109.231 109.048H72.614V72.4961H80.8787L101.094 92.6881L102.088 93.6668L103.073 92.6801L109.231 86.5388V109.048Z" fill="white"/>
<path fill-rule="evenodd" clip-rule="evenodd" d="M102.09 89.7226L76.207 63.8746L82.04 58.048H112.036V47.9626L127.977 63.8746L102.09 89.7226Z" fill="white"/>
<path fill-rule="evenodd" clip-rule="evenodd" d="M145.862 18.7439H160.063C168.275 18.7439 174.158 23.5439 174.158 31.6852C174.158 38.8506 168.272 44.8826 157.376 44.8826H154.686V55.1892H145.862V18.7439ZM157.682 38.1279C163.161 38.1279 165.116 35.2932 165.116 31.8959C165.116 28.2292 163.624 25.6026 158.923 25.6026H154.689V38.1279H157.682ZM211.327 53.1786L213.812 46.8906C217.067 48.0292 219.432 48.5439 223.462 48.5439C227.859 48.5439 229.867 47.2026 229.867 44.9866C229.867 39.0586 212.518 40.6559 212.518 28.2852C212.518 21.2719 219.179 18.2292 225.638 18.2292C231.418 18.2292 234.209 19.4692 237.045 20.7092L234.515 26.7839C231.83 26.0186 229.606 25.2906 225.894 25.2906C222.231 25.2906 221.089 26.6826 221.089 28.2292C221.089 33.0772 238.753 33.0772 238.753 44.6746C238.753 52.6639 231.109 55.7572 223.571 55.7572C217.584 55.7572 214.065 54.6719 211.327 53.1786ZM197.227 18.7439H185.241L172.944 55.1892H182.045L185.497 44.5226H196.971L200.423 55.1892H209.516L197.227 18.7439ZM187.569 38.1812L191.231 24.1546L194.899 38.1812H187.569Z" fill="white"/>
<path fill-rule="evenodd" clip-rule="evenodd" d="M146.49 18.6667H160.849C169.151 18.6667 175.104 23.4721 175.104 31.6107C175.104 38.7761 169.151 44.8108 158.138 44.8108H155.421V55.1307H146.49V18.6667ZM158.449 38.0534C163.989 38.0534 165.963 35.2081 165.963 31.8187C165.963 28.1574 164.458 25.5334 159.704 25.5334H155.421V38.0534H158.447H158.449ZM263.88 18.6667H251.947L239.712 55.1281H248.767L252.203 44.4561H263.624L267.076 55.1281H276.132L263.88 18.6667ZM254.265 38.1174L257.924 24.0827L261.568 38.1174H254.265ZM198.1 18.6667H186.16L173.924 55.1281H182.98L186.416 44.4561H197.837L201.288 55.1281H210.344L198.1 18.6667ZM188.472 38.1174L192.129 24.0827L195.778 38.1174H188.472ZM229.367 54.4854C229.889 55.9254 230.485 58.2214 230.485 59.6801C230.485 64.2187 225.886 66.6854 222.828 68.1521L220.082 62.5334C221.299 61.6908 223.757 60.5787 223.757 58.6134C223.757 57.5467 223.528 56.2214 223.294 55.1201C217.972 55.0534 214.782 54.0267 212.278 52.6321L214.622 46.5148C217.706 47.6188 219.967 48.1201 223.792 48.1201C227.947 48.1201 229.87 46.8214 229.87 44.6641C229.87 38.9041 213.397 40.4694 213.397 28.4401C213.397 21.6267 219.717 18.6667 225.84 18.6667C231.343 18.6667 233.982 19.8801 236.681 21.0774L234.278 26.9947C231.729 26.2401 229.62 25.5414 226.099 25.5414C222.609 25.5414 221.531 26.8854 221.531 28.3867C221.531 33.1067 238.292 33.1067 238.292 44.3681C238.292 50.1068 234.326 53.2427 229.367 54.4854Z" fill="white"/>
</g>
<defs>
<clipPath id="clip0_72_93">
<rect width="277" height="128" fill="white"/>
</clipPath>
</defs>
</svg>
