<svg width="128" height="128" viewBox="0 0 128 128" fill="none" xmlns="http://www.w3.org/2000/svg">
<path d="M103.659 7.90494C106.649 7.8674 110.464 7.42886 113.296 8.36183C114.709 8.82711 115.87 9.71693 116.535 11.0641C117.101 12.2081 117.294 13.5091 117.37 14.7706C117.535 17.524 117.416 20.3353 117.416 23.095L117.419 38.4649L117.42 54.6727C117.421 57.515 117.543 60.4093 117.39 63.2457C117.345 64.0868 117.208 64.8014 116.937 65.5958C115.819 68.868 113.862 72.0334 112.1 75.0001C102.353 91.2796 88.106 104.393 71.0758 112.761C60.1011 118.124 48.073 120.814 36.1843 116.712C27.1407 113.544 19.7357 106.898 15.6127 98.2478C11.7242 90.262 8.91599 76.182 11.8522 67.6903C16.1 53.8767 26.0796 39.8334 36.3947 29.9057C39.3371 27.0738 42.5552 24.6222 45.6575 21.9816C45.9051 33.9906 45.7338 46.0304 45.7233 58.0428C45.7193 62.5517 45.6256 67.0818 45.7493 71.5882C45.8793 76.3242 46.7408 80.9173 50.34 84.3015C54.9649 88.6499 61.9538 89.0702 67.9687 88.8689C70.4779 88.785 80.0711 88.4117 81.7216 86.6432C82.1184 86.2179 82.2535 85.4407 82.3168 84.8768C82.5223 83.0378 82.3865 81.0787 82.3708 79.2298L82.3616 70.8268L82.3623 40.3416C82.358 35.2041 81.8859 29.5908 83.0428 24.5633C83.9246 20.8691 85.7614 17.4714 88.3698 14.7103C92.3876 10.443 97.851 8.0941 103.659 7.90494Z" fill="white"/>
<path d="M31.8618 7.90383C35.109 7.87261 39.9397 7.21853 42.7603 8.96118C43.7602 9.579 44.7545 10.6411 45.0246 11.8077C44.8991 12.658 38.9538 16.7069 37.801 17.6246C29.493 24.3341 22.1874 32.1972 16.1059 40.9752C14.0996 43.811 12.1169 46.8102 10.693 49.9823C10.59 46.118 10.6512 42.2358 10.6468 38.3695C10.6413 33.5567 10.1867 28.3456 11.4493 23.6687C12.3477 20.3409 14.1864 17.2092 16.544 14.7051C20.5739 10.4248 26.0384 8.09085 31.8618 7.90383Z" fill="white"/>
<path d="M117.042 82.7513C117.212 82.9007 117.325 83.0443 117.344 83.2754C117.589 86.1867 117.409 89.2445 117.411 92.1686C117.414 95.9503 117.799 100.142 117.077 103.855C116.772 105.424 116.176 106.995 115.12 108.214C109.444 114.768 85.4734 119.268 76.4892 119.953L76.2354 119.934L76.091 119.743C76.5035 119.163 79.2732 117.985 80.0846 117.528C82.7769 115.98 85.4037 114.322 87.9588 112.557C99.0244 104.895 109.997 94.2671 117.042 82.7513Z" fill="white"/>
</svg>
